<?xml version="1.0" encoding="UTF-8" standalone="no"?>
<!-- Created with Inkscape (http://www.inkscape.org/) -->

<svg
   version="1.1"
   id="svg46"
   width="290.90909"
   height="290.90909"
   viewBox="0 0 290.90909 290.90909"
   sodipodi:docname="Untitled_Artwork.png"
   xmlns:inkscape="http://www.inkscape.org/namespaces/inkscape"
   xmlns:sodipodi="http://sodipodi.sourceforge.net/DTD/sodipodi-0.dtd"
   xmlns="http://www.w3.org/2000/svg"
   xmlns:svg="http://www.w3.org/2000/svg">
  <defs
     id="defs50" />
  <sodipodi:namedview
     id="namedview48"
     pagecolor="#ffffff"
     bordercolor="#000000"
     borderopacity="0.25"
     inkscape:showpageshadow="2"
     inkscape:pageopacity="0.0"
     inkscape:pagecheckerboard="0"
     inkscape:deskcolor="#d1d1d1"
     showgrid="false" />
  <g
     inkscape:groupmode="layer"
     inkscape:label="Image"
     id="g52">
    <path
       style="fill:#ffffff;fill-opacity:1"
       d="M 0.43581311,0 290.68735,0.43581311 V 290.68735 h -99.36539 c -4.95463,-3.37448 -6.52927,-9.02848 -5.66962,-14.73078 -0.20418,-19.52751 0.91263,-56.19098 -0.30025,-58.59478 -0.72473,-4.37463 -4.16324,-8.74901 -7.59482,-11.93038 12.91903,-3.20323 26.72314,-4.23988 38.22041,-11.64098 14.04578,-7.7447 24.39782,-20.80333 30.62609,-35.41925 8.26274,-14.98752 8.75649,-32.95349 6.19383,-49.49839 -2.62574,-11.84893 -9.14836,-25.150527 -16.74213,-34.604686 2.82138,-7.46532 4.61875,-26.108273 3.69799,-33.744221 -1.33284,-4.204308 -1.2599,-13.22481 -10.50822,-10.59893 -7.45943,1.227425 -17.78454,3.799261 -23.46043,7.784382 C 199.589,40.907619 190.44204,48.642843 190.44204,48.642843 157.49498,41.836648 132.2973,43.291037 99.736653,47.253978 89.277848,38.859218 83.10447,35.323023 71.121423,30.593585 c -3.90343,-1.153898 -14.89489,-4.580429 -17.015934,0.141771 -5.258112,11.919617 2.779528,39.627795 2.779528,39.627795 0,0 -13.605625,10.023611 -18.561522,23.338874 -5.955922,15.477635 -5.945664,28.587635 -3.841213,44.308405 2.118848,14.01291 5.370882,29.10697 16.747171,38.69419 16.472217,14.05002 37.399956,22.62441 58.713677,25.79905 5.30601,1.86009 -3.66262,4.82497 -5.05031,8.69643 -2.09332,4.91247 -2.59211,10.04954 -4.03891,14.58792 -8.784299,5.51786 -20.223273,3.68349 -29.984049,2.13451 -14.378207,-3.45386 -15.908627,-23.86807 -30.406551,-28.27527 -7.067404,-3.29851 -14.685853,-4.47972 -20.306954,-2.65973 -0.01845,3.99168 4.73502,8.21633 7.844034,9.84368 7.392447,5.2968 11.981135,6.6586 16.319132,20.33859 3.478824,9.37973 11.135856,20.18495 19.28566,22.41162 10.015051,4.30991 16.765564,4.31894 26.434251,3.95425 11.965017,-1.05995 12.856977,-6.9514 12.757267,1.57316 0.43219,10.54741 0.16708,19.70894 -0.6395,29.34117 -1.85076,4.61001 -6.008414,7.70183 -11.055203,6.44632 C 60.734665,290.84922 30.367332,290.80211 0,290.75501"
       id="path622"
       sodipodi:nodetypes="cccccccccccccccccccccccccccccccccccc" />
  </g>
</svg>
